<?xml version="1.0" encoding="UTF-8"?>
<!DOCTYPE svg PUBLIC "-//W3C//DTD SVG 1.1//EN" "http://www.w3.org/Graphics/SVG/1.1/DTD/svg11.dtd">
<svg version="1.1" xmlns="http://www.w3.org/2000/svg" xmlns:xlink="http://www.w3.org/1999/xlink" x="0px" y="0px" width="1024" height="1024" viewBox="0, 0, 1024, 1024">
  <g id="Layer 1">
    <path d="M681.477,33.675 C777.49,67.252 862.59,130.74 922.548,212.875 C974.745,283.909 1007.648,368.982 1016.648,456.695 C1026.484,548.909 1010.288,643.791 969.948,727.328 C918.074,835.71 826.157,924.178 715.942,971.929 C702.873,977.588 690.261,984.217 677.246,989.93 C608.018,1015.072 533.347,1022.859 460.104,1017.551 C408.823,1016.473 360.237,998.176 312.81,980.417 C328.116,928.813 343.125,877.101 359.833,825.928 C339.461,825.74 318.334,826.925 298.716,820.593 C291.359,818.814 289.015,811.269 287.21,804.855 C272.173,797.418 257.002,790.223 241.857,782.92 C226.443,775.833 212.889,764.434 195.831,761.254 C178.531,757.67 163.925,747.43 149.212,738.241 C146.463,735.547 139.08,733.283 143.284,728.163 C149.778,729.618 155.599,732.906 161.446,735.924 C154.494,731.1 147.595,726.169 140.778,721.103 C131.75,758.694 125.741,797.068 124.151,835.71 C69.071,770.093 29.997,690.868 13.802,606.577 C-1.316,527.944 1.999,445.62 24.473,368.685 C51.636,275.124 106.878,189.997 181.037,126.833 C199.065,111.203 218.521,97.352 238.327,84.067 C237.761,111.553 250.426,136.992 266.352,158.603 C243.205,183.718 225.527,213.091 206.421,241.251 C191.87,263.348 177.48,285.957 168.587,311.045 C157.593,342.87 159.425,378.171 169.854,409.888 C180.606,443.329 199.846,473.376 222.401,500.054 C192.597,560.766 167.752,623.985 148.943,688.982 C167.294,694.263 182.627,706.363 200.574,712.641 C198.472,704.8 190.981,695.18 198.472,687.985 C199.685,688.2 202.083,688.577 203.295,688.766 C208.981,698.521 213.643,708.95 220.973,717.654 C226.147,723.744 229.569,730.966 232.399,738.403 C251.639,749.883 271.688,760.015 291.791,769.878 C292.761,764.461 293.731,759.045 294.728,753.655 C314.696,771.063 335.095,788.471 358.674,800.84 C383.142,813.91 409.524,822.91 436.067,830.671 C449.621,834.794 464.981,834.713 477.593,827.734 C508.259,811.053 517.421,764.677 494.516,738.08 C485.623,727.328 472.149,722.342 459.107,718.785 C460.616,706.875 460.885,694.856 460.697,682.865 C440.756,679.388 420.895,675.238 401.466,669.499 C395.646,667.747 389.044,665.295 386.699,659.124 C383.385,651.498 388.666,643.387 387.238,635.707 C385.567,634.521 382.172,632.15 380.474,630.964 C382.064,619.215 383.304,606.873 391.28,597.441 C388.693,591.755 382.765,585.234 387.077,578.902 C393.355,571.222 404.835,569.74 410.117,561.009 C418.874,546.969 415.695,529.265 422.809,514.632 C425.369,509.189 428.602,504.123 431.701,498.976 C428.198,500.889 424.722,502.775 421.246,504.662 C417.231,497.628 413.701,489.679 415.937,481.433 C420.976,458.797 440.944,442.629 462.367,436 C500.983,422.661 542.266,433.143 579.912,444.677 C578.969,442.359 577.029,437.697 576.058,435.38 C602.117,446.105 627.205,460.872 645.367,482.834 C658.814,445.35 675.44,408.756 683.471,369.547 C712.978,369.925 745.8,366.314 768.247,345.106 C786.787,327.321 790.506,299.565 786.598,275.259 C782.394,250.09 774.741,224.625 759.274,203.956 C748.333,189.35 731.814,178.545 713.409,176.766 C689.642,174.341 666.629,183.584 646.175,194.848 C613.515,151.543 569.483,114.356 516.72,98.942 C489.53,90.75 461.236,85.819 432.806,85.765 C429.384,60.299 420.869,33.595 399.984,17.022 C492.953,-3.458 591.661,1.851 681.477,33.675 z M645.177,655.873 C640.791,659.44 638.635,663.502 636.053,667.256 C627.259,680.049 621.567,686.614 621.801,686.346 C606.513,703.881 595.713,709.077 580.983,714.601 C566.332,716.383 564.858,715.785 563.504,715.828 C558.143,715.997 550.576,716.173 547.868,715.986 C543.757,715.703 547.032,697.428 544.374,698.947 C542.217,700.18 539.271,726.55 540.504,728.708 C553.268,729.863 554.308,729.657 555.328,729.797 C560.529,730.51 563.791,731.76 568.97,732.623 C559.431,739.746 557.445,739.147 556.228,740.19 C549.811,741.48 538.03,747.311 533.76,751.705 C532.723,752.953 527.811,759.492 527.014,760.905 C521.207,771.023 521.166,770.49 520.853,771.132 C517.578,777.856 518.867,773.989 517.578,778.501 C511.767,798.838 523.164,815.413 524.667,818.458 C536.912,843.271 574.589,842.966 575.259,842.949 C601.616,842.254 606.489,836.663 606.838,836.504 C642.383,822.286 663.516,787.737 672.192,760.739 C673.546,756.525 672.877,742.692 672.832,741.613 C671.608,712.12 669.023,711.48 668.834,710.431 L659.363,684.729 z" fill="#F05332"/>
    <text transform="matrix(1, 0, 0, 1, 121.768, 746.663)"/>
  </g>
  <g id="Layer 1 Kopieren">
    <path d="M311.085,33.837 C331.053,25.78 355.413,20.768 374.923,32.705 C393.76,44.266 400.55,66.875 404.512,87.301 C361.18,93.58 319.304,111.176 285.916,139.74 C274.059,121.416 263.577,99.67 267.861,77.249 C272.119,55.638 291.683,41.382 311.085,33.837 z" fill="#F05332"/>
    <path d="M660.592,217.753 C678.62,208.86 699.073,201.261 719.418,206.004 C736.368,209.884 749.114,223.762 756.148,239.068 C764.07,256.611 768.867,276.202 766.226,295.496 C764.07,311.341 752.914,325.03 738.578,331.713 C722.841,339.798 704.84,340.741 687.513,341.765 C690.45,298.918 680.668,255.641 660.592,217.753 z" fill="#F05332"/>
    <path d="M447.385,308 C467.245,302.853 485.192,315.087 502.169,323.441 C515.238,330.124 528.416,341.441 529.413,357.125 C530.652,373.455 518.364,386.794 505.456,394.932 C489.989,404.633 474.144,418.053 454.634,415.843 C439.489,414.55 428.629,400.86 425.719,386.767 C422.836,372.673 422.89,358.149 422.917,343.813 C423.105,328.614 431.728,311.988 447.385,308 z" fill="#F05332"/>
    <text transform="matrix(1, 0, 0, 1, 121.768, 746.663)"/>
  </g>
  <defs/>
</svg>
