<?xml version="1.0" encoding="UTF-8"?>
<!DOCTYPE svg PUBLIC "-//W3C//DTD SVG 1.1//EN" "http://www.w3.org/Graphics/SVG/1.1/DTD/svg11.dtd">
<svg version="1.1" xmlns="http://www.w3.org/2000/svg" xmlns:xlink="http://www.w3.org/1999/xlink" x="0px" y="0px" width="380" height="380" viewBox="0, 0, 380, 380">
  <g id="Layer 1">
    <path d="M148.432,6.317 C182.932,-1.283 219.562,0.687 252.892,12.497 C288.522,24.957 320.102,48.517 342.352,78.997 C361.722,105.357 373.932,136.927 377.272,169.477 C380.922,203.697 374.912,238.907 359.942,269.907 C340.692,310.127 306.582,342.957 265.682,360.677 C260.832,362.777 256.152,365.237 251.322,367.357 C225.632,376.687 197.922,379.577 170.742,377.607 C151.712,377.207 133.682,370.417 116.082,363.827 C121.762,344.677 127.332,325.487 133.532,306.497 C125.972,306.427 118.132,306.867 110.852,304.517 C108.122,303.857 107.252,301.057 106.582,298.677 C101.002,295.917 95.372,293.247 89.752,290.537 C84.032,287.907 79.002,283.677 72.672,282.497 C66.252,281.167 60.832,277.367 55.372,273.957 C54.352,272.957 51.612,272.117 53.172,270.217 C55.582,270.757 57.742,271.977 59.912,273.097 C57.332,271.307 54.772,269.477 52.242,267.597 C48.892,281.547 46.662,295.787 46.072,310.127 C25.632,285.777 11.132,256.377 5.122,225.097 C-0.488,195.917 0.742,165.367 9.082,136.817 C19.162,102.097 39.662,70.507 67.182,47.067 C73.872,41.267 81.092,36.127 88.442,31.197 C88.232,41.397 92.932,50.837 98.842,58.857 C90.252,68.177 83.692,79.077 76.602,89.527 C71.202,97.727 65.862,106.117 62.562,115.427 C58.482,127.237 59.162,140.337 63.032,152.107 C67.022,164.517 74.162,175.667 82.532,185.567 C71.472,208.097 62.252,231.557 55.272,255.677 C62.082,257.637 67.772,262.127 74.432,264.457 C73.652,261.547 70.872,257.977 73.652,255.307 C74.102,255.387 74.992,255.527 75.442,255.597 C77.552,259.217 79.282,263.087 82.002,266.317 C83.922,268.577 85.192,271.257 86.242,274.017 C93.382,278.277 100.822,282.037 108.282,285.697 C108.642,283.687 109.002,281.677 109.372,279.677 C116.782,286.137 124.352,292.597 133.102,297.187 C142.182,302.037 151.972,305.377 161.822,308.257 C166.852,309.787 172.552,309.757 177.232,307.167 C188.612,300.977 192.012,283.767 183.512,273.897 C180.212,269.907 175.212,268.057 170.372,266.737 C170.932,262.317 171.032,257.857 170.962,253.407 C163.562,252.117 156.192,250.577 148.982,248.447 C146.822,247.797 144.372,246.887 143.502,244.597 C142.272,241.767 144.232,238.757 143.702,235.907 C143.082,235.467 141.822,234.587 141.192,234.147 C141.782,229.787 142.242,225.207 145.202,221.707 C144.242,219.597 142.042,217.177 143.642,214.827 C145.972,211.977 150.232,211.427 152.192,208.187 C155.442,202.977 154.262,196.407 156.902,190.977 C157.852,188.957 159.052,187.077 160.202,185.167 C158.902,185.877 157.612,186.577 156.322,187.277 C154.832,184.667 153.522,181.717 154.352,178.657 C156.222,170.257 163.632,164.257 171.582,161.797 C185.912,156.847 201.232,160.737 215.202,165.017 C214.852,164.157 214.132,162.427 213.772,161.567 C223.442,165.547 232.752,171.027 239.492,179.177 C244.482,165.267 250.652,151.687 253.632,137.137 C264.582,137.277 276.762,135.937 285.092,128.067 C291.972,121.467 293.352,111.167 291.902,102.147 C290.342,92.807 287.502,83.357 281.762,75.687 C277.702,70.267 271.572,66.257 264.742,65.597 C255.922,64.697 247.382,68.127 239.792,72.307 C227.672,56.237 211.332,42.437 191.752,36.717 C181.662,33.677 171.162,31.847 160.612,31.827 C159.342,22.377 156.182,12.467 148.432,6.317 z" fill="#F05332"/>
    <path d="M115.442,12.557 C122.852,9.567 131.892,7.707 139.132,12.137 C146.122,16.427 148.642,24.817 150.112,32.397 C134.032,34.727 118.492,41.257 106.102,51.857 C101.702,45.057 97.812,36.987 99.402,28.667 C100.982,20.647 108.242,15.357 115.442,12.557 z" fill="#F05332"/>
    <path d="M245.142,80.807 C251.832,77.507 259.422,74.687 266.972,76.447 C273.262,77.887 277.992,83.037 280.602,88.717 C283.542,95.227 285.322,102.497 284.342,109.657 C283.542,115.537 279.402,120.617 274.082,123.097 C268.242,126.097 261.562,126.447 255.132,126.827 C256.222,110.927 252.592,94.867 245.142,80.807 z" fill="#F05332"/>
    <path d="M166.022,114.297 C173.392,112.387 180.052,116.927 186.352,120.027 C191.202,122.507 196.092,126.707 196.462,132.527 C196.922,138.587 192.362,143.537 187.572,146.557 C181.832,150.157 175.952,155.137 168.712,154.317 C163.092,153.837 159.062,148.757 157.982,143.527 C156.912,138.297 156.932,132.907 156.942,127.587 C157.012,121.947 160.212,115.777 166.022,114.297 z" fill="#F05332"/>
    <path d="M236.548,247.659 C237.298,245.839 238.018,243.999 238.738,242.169 C244.548,250.389 248.508,260.179 248.288,270.359 C247.978,281.229 244.838,292.629 237.058,300.569 C230.438,307.279 221.188,311.289 211.838,311.989 C200.978,312.289 192.348,301.809 192.588,291.379 C192.228,284.259 196.808,277.129 203.718,275.029 C205.948,274.059 208.988,274.289 210.328,271.889 C207.128,271.099 203.848,270.739 200.578,270.419 C200.638,267.029 199.958,263.409 201.678,260.289 C201.838,261.939 201.968,263.589 202.078,265.239 C206.888,264.719 211.928,265.959 216.558,264.169 C220.018,262.809 223.858,261.639 226.018,258.349 C230.498,255.719 231.728,249.649 236.548,247.659 z" fill="#FFFFFF"/>
    <text transform="matrix(1, 0, 0, 1, 45.187, 277.082)"/>
  </g>
  <defs/>
</svg>
